<svg xmlns="http://www.w3.org/2000/svg" viewBox="0 0 512 512" role="img" aria-label="DCS VR Control: aircraft in a focus reticle">
  <defs><linearGradient id="tile" gradientUnits="userSpaceOnUse" x2="0" y2="512"><stop stop-color="#343434"/><stop offset="1" stop-color="#191919"/></linearGradient><linearGradient id="aircraft" gradientUnits="userSpaceOnUse" x2="0" y2="512"><stop stop-color="#ffbe55"/><stop offset="1" stop-color="#f5a01a"/></linearGradient></defs>
  <rect x="16" y="16" width="480" height="480" rx="88" fill="url(#tile)" stroke="#4a4a4a" stroke-width="3"/>
  <g fill="none" stroke="#ba7b25" stroke-width="12" stroke-linecap="round" stroke-linejoin="round"><path d="M168 104H132Q104 104 104 132V168"/><path d="M344 104H380Q408 104 408 132V168"/><path d="M104 344V380Q104 408 132 408H168"/><path d="M408 344V380Q408 408 380 408H344"/></g>
  <path d="M256 112 L277 216 L376 286 L376 316 L278 280 L278 339 L307 363 L307 383 L256 362 L205 383 L205 363 L234 339 L234 280 L136 316 L136 286 L235 216Z" fill="url(#aircraft)"/>
  <path d="M256 174L263 216V255H249V216Z" fill="#262626"/>
</svg>
